name C:\Users\r0593348\3dpredictsim\Results\Batchsim_tmt_linear\Pog_s1_tmt_aCst_d05_k1000_ig24_act.mot
datacolumns 128
datarows 4
range 1.22882961 1.26569450
endheader
time	pelvis_tilt	pelvis_list	pelvis_rotation	pelvis_tx	pelvis_ty	pelvis_tz	hip_flexion_l	hip_adduction_l	hip_rotation_l	hip_flexion_r	hip_adduction_r	hip_rotation_r	knee_angle_l	knee_angle_r	ankle_angle_l	ankle_angle_r	subtalar_angle_l	subtalar_angle_r	tmt_angle_l	tmt_angle_r	mtp_angle_l	mtp_angle_r	lumbar_extension	lumbar_bending	lumbar_rotation	arm_flex_l	arm_add_l	arm_rot_l	arm_flex_r	arm_add_r	arm_rot_r	elbow_flex_l	elbow_flex_r	pro_sup_l	pro_sup_r	glut_med1_l/activation	glut_med2_l/activation	glut_med3_l/activation	glut_min1_l/activation	glut_min2_l/activation	glut_min3_l/activation	semimem_l/activation	semiten_l/activation	bifemlh_l/activation	bifemsh_l/activation	sar_l/activation	add_long_l/activation	add_brev_l/activation	add_mag1_l/activation	add_mag2_l/activation	add_mag3_l/activation	tfl_l/activation	pect_l/activation	grac_l/activation	glut_max1_l/activation	glut_max2_l/activation	glut_max3_l/activation	iliacus_l/activation	psoas_l/activation	quad_fem_l/activation	gem_l/activation	peri_l/activation	rect_fem_l/activation	vas_med_l/activation	vas_int_l/activation	vas_lat_l/activation	med_gas_l/activation	lat_gas_l/activation	soleus_l/activation	tib_post_l/activation	flex_dig_l/activation	flex_hal_l/activation	tib_ant_l/activation	per_brev_l/activation	per_long_l/activation	per_tert_l/activation	ext_dig_l/activation	ext_hal_l/activation	ercspn_l/activation	intobl_l/activation	extobl_l/activation	glut_med1_r/activation	glut_med2_r/activation	glut_med3_r/activation	glut_min1_r/activation	glut_min2_r/activation	glut_min3_r/activation	semimem_r/activation	semiten_r/activation	bifemlh_r/activation	bifemsh_r/activation	sar_r/activation	add_long_r/activation	add_brev_r/activation	add_mag1_r/activation	add_mag2_r/activation	add_mag3_r/activation	tfl_r/activation	pect_r/activation	grac_r/activation	glut_max1_r/activation	glut_max2_r/activation	glut_max3_r/activation	iliacus_r/activation	psoas_r/activation	quad_fem_r/activation	gem_r/activation	peri_r/activation	rect_fem_r/activation	vas_med_r/activation	vas_int_r/activation	vas_lat_r/activation	med_gas_r/activation	lat_gas_r/activation	soleus_r/activation	tib_post_r/activation	flex_dig_r/activation	flex_hal_r/activation	tib_ant_r/activation	per_brev_r/activation	per_long_r/activation	per_tert_r/activation	ext_dig_r/activation	ext_hal_r/activation	ercspn_r/activation	intobl_r/activation	extobl_r/activation	
          1.22882961	         -2.92984421	         -1.08122411	          7.73976290	          1.53603701	          0.85906829	         -0.00186095	        -15.76563269	         -1.69485980	          8.88381067	         32.32465622	          0.87251297	          0.37531345	        -16.48936222	        -14.96491754	        -10.45883787	          8.98456216	         13.51042110	          0.07826601	          0.99467074	          0.02404189	         30.95504089	         -0.09343915	         -0.55523200	         -1.22691142	         -3.02735161	          4.33801065	        -13.49485407	         18.45604468	        -10.12698317	        -13.57500542	         11.75185856	         42.03589027	         15.82870704	         86.51662706	         86.51662706	          0.15995800	          0.08079745	          0.07257760	          0.19521665	          0.12692776	          0.08242971	          0.05000129	          0.05000013	          0.05000012	          0.05000060	          0.09628015	          0.05000110	          0.05000013	          0.05000015	          0.05000035	          0.05000024	          0.17558632	          0.05000152	          0.05000040	          0.05000239	          0.05000110	          0.05000045	          0.45456517	          0.58958699	          0.05000019	          0.05000077	          0.06594192	          0.25383401	          0.10947467	          0.10765286	          0.10279816	          0.14867867	          0.22815486	          0.06024019	          0.16412885	          0.19211486	          0.21169478	          0.05000001	          0.36177164	          0.34419321	          0.05000005	          0.19768296	          0.05000006	          0.05000000	          0.05000001	          0.05000003	          0.05000055	          0.05000010	          0.05000041	          0.05000013	          0.05000015	          0.05000046	          0.19421413	          0.06024032	          0.14370067	          0.05000046	          0.05000175	          0.06264097	          0.09145275	          0.19223281	          0.15726162	          0.12960496	          0.05000420	          0.06023422	          0.06024074	          0.05000027	          0.06989310	          0.10482315	          0.05534714	          0.05527077	          0.13256275	          0.05000082	          0.05000044	          0.05000028	          0.09586601	          0.10361872	          0.08773262	          0.06024024	          0.06024024	          0.06024024	          0.05000006	          0.05000056	          0.05278911	          0.51742655	          0.34661904	          0.20429391	          0.13125960	          0.54930494	          0.35995502	          0.05000022	          0.13375929	          0.11492259	
          1.24111790	         -2.92901912	         -1.02597459	          7.94489269	          1.55576679	          0.85765656	         -0.00155853	        -16.01557351	         -1.92065826	          8.65855240	         31.65121089	          1.12543629	          0.57458855	        -17.61061143	        -14.97179002	        -13.44356856	          8.40483196	         14.01281091	         -0.32821032	          0.91780141	          0.04031210	         32.49352301	         -0.08839000	         -0.29858352	         -1.07652709	         -3.12102475	          3.85735024	        -13.54832410	         18.64800231	        -11.53941913	        -13.56740339	         11.64317609	         43.28565701	         15.82038488	         86.51662706	         86.51662706	          0.13276678	          0.06706276	          0.06024071	          0.16203183	          0.10535134	          0.06841759	          0.05000098	          0.05000009	          0.05000012	          0.05000016	          0.07991363	          0.13685564	          0.14316292	          0.09284814	          0.05000444	          0.05000060	          0.14573841	          0.07609002	          0.05000644	          0.05000136	          0.05000094	          0.05000095	          0.37729360	          0.48936307	          0.07257757	          0.06025588	          0.06024036	          0.21068474	          0.11007090	          0.12692253	          0.10291535	          0.12340477	          0.18937079	          0.05000000	          0.13622857	          0.15945725	          0.17570877	          0.20123830	          0.37830786	          0.32374659	          0.47779804	          0.37695089	          0.13270578	          0.05489568	          0.07200329	          0.05553149	          0.08014053	          0.06024013	          0.05000021	          0.06024036	          0.06023235	          0.05000176	          0.16119975	          0.05000014	          0.11927302	          0.05000012	          0.05000083	          0.05199271	          0.07590675	          0.23882352	          0.19472406	          0.14343636	          0.05000024	          0.05000065	          0.05000055	          0.06024025	          0.11456878	          0.12961384	          0.05000014	          0.05000032	          0.33991335	          0.06024087	          0.07411288	          0.07257767	          0.22913422	          0.22982173	          0.20283155	          0.05000000	          0.05000000	          0.05000000	          0.05000003	          0.07005945	          0.05000017	          0.67429514	          0.35150289	          0.22967351	          0.52246527	          0.61533840	          0.44229800	          0.05000000	          0.11102153	          0.09538688	
          1.25340620	         -2.92231640	         -0.97578690	          8.11498341	          1.57571113	          0.85594737	         -0.00127777	        -16.07298284	         -2.10901609	          8.43166725	         30.85946130	          1.36875051	          0.83595669	        -19.09153798	        -15.64028150	        -16.20802165	          7.71381894	         14.47805501	         -0.75067184	          0.76131705	         -0.03382362	         33.18664062	         -0.15115832	         -0.03338688	         -0.90651497	         -3.19740032	          3.30752433	        -13.61096418	         18.76743034	        -12.93421761	        -13.56832469	         11.60715157	         44.51804884	         15.78598334	         86.51662706	         86.51662706	          0.11019856	          0.05566284	          0.05000047	          0.13448813	          0.08744269	          0.05678733	          0.06115599	          0.06024025	          0.06024033	          0.05000016	          0.06632925	          0.15509911	          0.27455381	          0.12346653	          0.06027075	          0.10040694	          0.12096435	          0.06315655	          0.05701987	          0.05004284	          0.06022756	          0.06024018	          0.31315744	          0.40617625	          0.06024026	          0.05001341	          0.05000013	          0.17487042	          0.09135997	          0.10534699	          0.08542078	          0.10242718	          0.15717964	          0.05021718	          0.11307107	          0.13235112	          0.14584003	          0.35939708	          0.45953503	          0.33748365	          0.71295273	          0.49642895	          0.28365484	          0.07305050	          0.05976346	          0.05231728	          0.28132189	          0.05000008	          0.41623717	          0.05000044	          0.05000015	          0.34700473	          0.13614688	          0.05000125	          0.11177103	          0.05000007	          0.05000017	          0.07257780	          0.15292562	          0.23456582	          0.22528815	          0.17434896	          0.05000014	          0.06025120	          0.12450952	          0.05000011	          0.19017045	          0.18049804	          0.05000051	          0.05000012	          0.28213149	          0.05000065	          0.26365686	          0.06024019	          0.19018372	          0.19075438	          0.16835224	          0.06024023	          0.06024023	          0.06024024	          0.06024020	          0.06024003	          0.06024026	          0.58101998	          0.37366748	          0.19063154	          0.43365152	          0.62628800	          0.36711195	          0.05000005	          0.09214909	          0.07917206	
          1.26569450	         -2.91275224	         -0.93391470	          8.24355955	          1.59553515	          0.85401154	         -0.00100000	        -15.90309610	         -2.25957984	          8.21905579	         29.98471110	          1.60411183	          1.11459759	        -20.98169379	        -16.42608668	        -18.39170600	          7.23302607	         14.88325184	         -1.18854567	          0.56626856	         -0.01550925	         32.23292623	         -0.16166125	          0.21141043	         -0.71583610	         -3.25437485	          2.74114725	        -13.67419302	         18.81579162	        -14.23540231	        -13.58018861	         11.69901807	         45.70682660	         15.67746257	         86.51662706	         86.51662706	          0.23867230	          0.05000006	          0.05000002	          0.17859707	          0.07257835	          0.05000020	          0.08984849	          0.05000015	          0.05000022	          0.05000015	          0.05505481	          0.12873400	          0.22922714	          0.10247873	          0.05002586	          0.08333893	          0.10040164	          0.06024225	          0.05000035	          0.05000049	          0.05000031	          0.05000031	          0.25992379	          0.39142374	          0.05000007	          0.05000024	          0.05000013	          0.14514418	          0.07583017	          0.08744179	          0.08744189	          0.08501558	          0.13046066	          0.05000002	          0.09385011	          0.10985277	          0.12104869	          0.29830316	          0.38141873	          0.28098012	          0.65805716	          0.66661272	          0.23543636	          0.11052344	          0.05000000	          0.05000001	          0.33392459	          0.34325810	          0.48388730	          0.14575345	          0.20338007	          0.28801760	          0.11300327	          0.09376109	          0.09277108	          0.07257735	          0.05000032	          0.06024031	          0.12692979	          0.19469213	          0.22298902	          0.18326840	          0.05000009	          0.05000925	          0.10334430	          0.27065792	          0.24184830	          0.20458725	          0.05000002	          0.05000003	          0.23417206	          0.05656358	          0.21883805	          0.05000001	          0.15785458	          0.23056500	          0.17641375	          0.05000000	          0.05000001	          0.05000000	          0.05000000	          0.05000006	          0.05000006	          0.72434674	          0.38633189	          0.19300354	          0.68868602	          0.71529002	          0.54060260	          0.06287604	          0.07648468	          0.06571359	
